<svg height="400" width="450">
  <path id="lineAB" d="m247.95622,28.12305c-12.19972,2.23394 -21.61887,16.95667 -20.74588,29.01591c1.44209,13.7284 17.93463,5.12075 22.80087,1.23941c-2.90906,11.49207 -26.14024,13.85409 -24.83565,-0.12387c-17.69467,13.05878 -30.95056,33.52913 -52.86781,40.14553c-19.77757,4.59067 -40.50726,3.0742 -60.45068,0.39017c-12.12445,-1.13604 -23.69794,-7.26224 -35.91985,-5.97962c-13.09134,3.59118 -23.59412,13.16467 -36.65408,16.93906c-13.77014,6.03062 -8.51065,22.6805 -9.70401,34.47604c0.36829,17.55977 -2.85913,36.16287 -15.09811,49.55722c-7.11563,10.54993 -7.76443,24.43282 -13.48046,35.44298c18.99679,-0.19772 7.54522,-25.59486 17.99728,-35.91756c14.58305,-6.75189 14.16003,-25.2986 16.19452,-38.95529c1.4834,-5.51941 0.74519,-25.08188 6.61763,-22.44334c7.21924,16.22275 11.33028,34.35388 9.69645,52.12326c-9.5553,8.96404 -24.74576,15.34862 -22.54872,31.87126c0.72458,14.96526 -8.38036,25.74033 -15.4907,37.48604c4.56749,6.89259 1.00608,20.69472 14.11573,16.65324c8.77115,1.68887 13.10825,-2.37698 4.45589,-8.42346c-13.07829,-12.56499 5.13552,-29.16821 12.20585,-40.168c7.30689,-12.28131 22.16195,-12.86801 33.02653,-20.13979c15.00671,-8.95824 25.97935,-22.79263 35.92999,-36.78595c8.71432,9.26259 -13.75776,17.74474 -17.07076,27.20334c-7.22755,7.75058 -20.15694,21.85651 -2.99889,26.65347c13.26358,4.53796 25.75887,13.79143 25.35975,28.30255c0.22051,9.84615 24.38135,18.76527 19.43611,2.77341c-8.3609,-14.92882 -28.34064,-20.79163 -33.65835,-37.70844c-3.6715,-12.98383 11.61318,-19.27325 18.93525,-8.74269c12.96419,-1.41862 26.57983,-10.04028 40.80356,-11.3647c14.66299,-5.4577 18.06927,14.52957 29.8145,19.76668c9.79047,9.67969 18.77974,21.93582 17.54285,36.4783c1.1926,12.30893 9.52699,25.16873 23.92239,23.90201c16.80026,-2.80963 -5.10118,-20.70317 -12.79568,-24.81631c-11.14896,-13.29695 -9.30676,-32.20113 -16.24597,-47.51259c-5.00217,-4.52083 0.22685,-26.45532 0.40694,-10.76334c-0.90044,17.98242 24.73294,7.66248 22.97939,-6.09152c4.36166,-10.95654 -11.58513,-4.19417 -9.47617,-15.24252c-1.73091,-13.74937 -0.74355,-30.75096 -12.6731,-40.17292c-6.8737,-6.7591 -4.7831,-7.41829 2.70201,-2.07212c14.59439,7.55807 11.75914,24.79303 12.78276,38.37691c4.22589,17.80225 21.30753,-5.24332 20.80711,-14.89757c2.92691,-20.96336 12.92174,-42.46973 32.42046,-52.68139c-5.2402,-2.56694 -30.94765,6.73531 -28.79092,-4.9679c10.59921,9.00244 25.18661,-0.80075 37.71524,1.85265c16.62164,0.68233 20.74963,-22.79317 2.53195,-23.94116c-11.78333,-6.98062 -21.92947,-19.31897 -37.15829,-18.35906c-22.07759,7.39931 -8.43927,-13.11165 -2.53694,-22.37832zm21.60802,9.50184c-1.66193,5.79599 -12.61478,17.62506 0.56973,12.83867c1.89221,-3.91013 1.1131,-8.97168 -0.56973,-12.83867zm-3.4996,26.34877c5.90985,9.81916 -11.80539,1.02993 0,0zm24.39551,10.15293c-2.05029,4.18517 5.51468,4.9676 -0.32553,4.96455c-3.08926,4.10121 -4.4324,-5.29953 0.32553,-4.96455z" stroke="red"
  stroke-width="1" fill="none" />
  </svg>